<svg xmlns="http://www.w3.org/2000/svg" version="1.1" xmlns:xlink="http://www.w3.org/1999/xlink" xmlns:svgjs="http://svgjs.dev/svgjs" width="2000" height="1320" viewBox="0 0 2000 1320"><g transform="matrix(1,0,0,1,-0.5724387708331733,0.534412955465541)"><svg viewBox="0 0 374 247" data-background-color="#ffffff" preserveAspectRatio="xMidYMid meet" height="1320" width="2000" xmlns="http://www.w3.org/2000/svg" xmlns:xlink="http://www.w3.org/1999/xlink"><g id="tight-bounds" transform="matrix(1,0,0,1,0.10704605014581148,-0.09999999999999432)"><svg viewBox="0 0 373.7859078997084 247.2" height="247.2" width="373.7859078997084"><g><svg viewBox="0 0 373.7859078997084 247.2" height="247.2" width="373.7859078997084"><g transform="matrix(1,0,0,1,178.8366367626822,0)"><svg viewBox="0 0 194.94927113702622 247.2" height="247.2" width="194.94927113702622"><g id="textblocktransform"><svg viewBox="0 0 194.94927113702622 247.2" height="247.2" width="194.94927113702622" id="textblock"><g><svg viewBox="0 0 194.94927113702622 247.2" height="247.2" width="194.94927113702622"><g transform="matrix(1,0,0,1,0,0)"><svg width="194.94927113702622" viewBox="-0.6 -34.3 27.05 34.3" height="247.2" data-palette-color="#ffffff"><path d="M-0.6 0L-0.4-2.45 16.75-28.6 4.25-28.6 5.05-34.3 26.45-34.3 26.25-31.8 9.05-5.7 22.95-5.7 22.15 0-0.6 0Z" opacity="1" transform="matrix(1,0,0,1,0,0)" fill="#ffffff" class="wordmark-text-0" data-fill-palette-color="primary" id="text-0"></path></svg></g></svg></g></svg></g></svg></g><g transform="matrix(1,0,0,1,0,63.3606752186589)"><svg viewBox="0 0 120.4786495626822 120.4786495626822" height="120.4786495626822" width="120.4786495626822"><g><svg xmlns="http://www.w3.org/2000/svg" xmlns:xlink="http://www.w3.org/1999/xlink" version="1.0" x="0" y="0" viewBox="10 10 80 80" enable-background="new 0 0 100 100" xml:space="preserve" height="120.4786495626822" width="120.4786495626822" class="icon-icon-0" data-fill-palette-color="accent" id="icon-0"><path fill="none" stroke="#77D4FC" stroke-linecap="round" stroke-linejoin="round" stroke-miterlimit="10" d="M78.33 56.667l1.945 15.555L78.33 56.667z"></path><path fill="none" stroke="#77D4FC" stroke-linecap="round" stroke-linejoin="round" stroke-miterlimit="10" d="M75.689 22.862v-3.157C75.021 14.236 70.37 10 64.722 10c-5.647 0-10.298 4.235-10.968 9.704v3.157c-1.433 0.509-2.461 1.859-2.461 3.461 0 3.145 1.596 5.689 3.582 5.778 1.828 5.631 5.549 9.496 9.847 9.496 4.297 0 8.016-3.864 9.846-9.496 1.986-0.089 3.583-2.633 3.583-5.778C78.15 24.721 77.118 23.371 75.689 22.862z"></path><path fill="none" stroke="#77D4FC" stroke-linecap="round" stroke-linejoin="round" stroke-miterlimit="10" d="M63.359 24.58h-6.806v1.945c0 1.071 0.877 1.947 1.946 1.947h2.917c1.069 0 1.942-0.876 1.942-1.947V24.58z"></path><path fill="none" stroke="#77D4FC" stroke-linecap="round" stroke-linejoin="round" stroke-miterlimit="10" d="M56.554 24.58l-2.8-1.718L56.554 24.58z"></path><path fill="none" stroke="#77D4FC" stroke-linecap="round" stroke-linejoin="round" stroke-miterlimit="10" d="M66.081 24.58h6.806v1.945c0 1.071-0.875 1.947-1.944 1.947h-2.916c-1.071 0-1.945-0.876-1.945-1.947V24.58z"></path><path fill="none" stroke="#77D4FC" stroke-linecap="round" stroke-linejoin="round" stroke-miterlimit="10" d="M72.889 24.58l2.801-1.718L72.889 24.58z"></path><path fill="none" stroke="#77D4FC" stroke-linecap="round" stroke-linejoin="round" stroke-miterlimit="10" d="M63.359 24.58h2.722H63.359z"></path><path fill="none" stroke="#77D4FC" stroke-linecap="round" stroke-linejoin="round" stroke-miterlimit="10" d="M62.292 35.745c1.342 1.341 3.519 1.341 4.86 0C65.811 37.086 63.634 37.086 62.292 35.745z"></path><path fill="none" stroke="#77D4FC" stroke-linecap="round" stroke-linejoin="round" stroke-miterlimit="10" d="M75.689 22.862c-3.038 0-5.788-1.231-7.78-3.221l0 0c-2.147-2.147-4.961-3.222-7.777-3.222-3.522 0-6.378 2.885-6.378 6.443v-3.157C54.424 14.236 59.074 10 64.722 10c5.648 0 10.299 4.235 10.968 9.704V22.862z"></path><path fill="none" stroke="#77D4FC" stroke-linecap="round" stroke-linejoin="round" stroke-miterlimit="10" d="M64.722 48.889c3.219 0 6.066-1.571 7.834-3.981-0.535-0.258-1.031-0.585-1.446-1.002-0.941-0.937-1.52-2.235-1.52-3.668v-0.429c-1.469 1.139-3.119 1.788-4.868 1.788-1.748 0-3.398-0.649-4.866-1.788v0.429c0 1.433-0.583 2.732-1.521 3.668-0.417 0.417-0.911 0.744-1.449 0.999C58.656 47.317 61.503 48.889 64.722 48.889z"></path><path fill="none" stroke="#77D4FC" stroke-linecap="round" stroke-linejoin="round" stroke-miterlimit="10" d="M72.792 45.033c-0.084-0.034-0.155-0.089-0.236-0.125-1.768 2.41-4.615 3.981-7.834 3.981s-6.065-1.571-7.836-3.984c-0.078 0.04-0.151 0.092-0.236 0.128l-3.415 1.415c2.415 3.8 6.651 6.33 11.486 6.33 4.837 0 9.072-2.529 11.489-6.33L72.792 45.033z"></path><path fill="none" stroke="#77D4FC" stroke-linecap="round" stroke-linejoin="round" stroke-miterlimit="10" d="M58.889 85.556H10v2.224C10 89.002 11.001 90 12.223 90h44.444c1.222 0 2.222-0.998 2.222-2.221V85.556z"></path><path fill="none" stroke="#77D4FC" stroke-linecap="round" stroke-linejoin="round" stroke-miterlimit="10" d="M58.889 82.219c0 1.833-1.5 3.333-3.333 3.333H13.335c-1.834 0-3.335-1.5-3.335-3.333V57.774c0-1.833 1.5-3.335 3.335-3.335h42.221c1.833 0 3.333 1.502 3.333 3.335V82.219z"></path><path fill="none" stroke="#77D4FC" stroke-linecap="round" stroke-linejoin="round" stroke-miterlimit="10" d="M55.556 54.439c1.833 0 3.333 1.502 3.333 3.335v14.447H90l-0.004-14.826c0-2.469-1-4.704-2.614-6.321L76.21 46.448c-2.417 3.8-6.652 6.33-11.489 6.33-4.835 0-9.071-2.529-11.486-6.33l-11.172 4.626c-0.938 0.938-1.66 2.089-2.107 3.365H55.556z"></path><circle fill="none" stroke="#77D4FC" stroke-linecap="round" stroke-linejoin="round" stroke-miterlimit="10" cx="34.444" cy="70" r="3.3"></circle></svg></g></svg></g></svg></g><defs></defs></svg><rect width="373.7859078997084" height="247.2" fill="none" stroke="none" visibility="hidden"></rect></g></svg></g></svg>